<svg xmlns="http://www.w3.org/2000/svg" version="1.1" xmlns:xlink="http://www.w3.org/1999/xlink" xmlns:svgjs="http://svgjs.dev/svgjs" width="2000" height="2254" viewBox="0 0 2000 2254"><g transform="matrix(1,0,0,1,-3.9243572233702935,-3.635483870967846)"><svg viewBox="0 0 220 248" data-background-color="#61777f" preserveAspectRatio="xMidYMid meet" height="2254" width="2000" xmlns="http://www.w3.org/2000/svg" xmlns:xlink="http://www.w3.org/1999/xlink"><g id="tight-bounds" transform="matrix(1,0,0,1,0.43167929457072773,0.4000000000000057)"><svg viewBox="0 0 219.13664141085854 247.2" height="247.2" width="219.13664141085854"><g><svg viewBox="0 0 395.5199999999999 446.1715912524486" height="247.2" width="219.13664141085854"><g transform="matrix(1,0,0,1,0,247.77199085157358)"><svg viewBox="0 0 395.5199999999999 198.399600400875" height="198.399600400875" width="395.5199999999999"><g id="textblocktransform"><svg viewBox="0 0 395.5199999999999 198.399600400875" height="198.399600400875" width="395.5199999999999" id="textblock"><g><svg viewBox="0 0 395.5199999999999 140.9862605752961" height="140.9862605752961" width="395.5199999999999"><g transform="matrix(1,0,0,1,0,0)"><svg width="395.5199999999999" viewBox="4 -30.85 88.65 31.6" height="140.9862605752961" data-palette-color="#ffffff"><path d="M9.6 0L4 0 4.7-9.9 4.7-20.4 4-30.25 9.6-30.25 8.9-20.35 8.9-17.65 24.3-17.65 24.3-20.4 23.6-30.25 29.2-30.25 28.5-20.35 28.5-9.85 29.2 0 23.6 0 24.3-9.9 24.3-14.15 8.9-14.15 8.9-9.85 9.6 0ZM67.1 0L61.8 0 62-9.9 61.25-22.6 52.8-3.5 51.4-3.35 41.55-22.6 41-9.85 41.35 0 36.4 0 37.6-9.9 38.15-20.4 37.8-30.1 43-30.3 43.9-27 52.3-9.65 59.85-27.75 60.4-30.15 65.7-30.35 65.35-20.35 65.9-9.85 67.1 0ZM73.05-0.85L73.05-0.85 74.75-5.9Q77.65-4 79.47-3.3 81.3-2.6 83.25-2.6L83.25-2.6Q86.55-2.6 88.45-4.6L88.45-4.6Q88.6-5.35 88.6-6.15L88.6-6.15Q88.6-8.5 87.02-10.1 85.45-11.7 83.22-12.65 81-13.6 78.75-14.65 76.5-15.7 74.92-17.65 73.35-19.6 73.35-22.5L73.35-22.5Q73.35-26.25 76.47-28.55 79.6-30.85 84.7-30.85L84.7-30.85Q88.25-30.85 91.35-29.45L91.35-29.45 89.9-24.75Q85.7-27.55 82.97-27.55 80.25-27.55 77.5-25.85L77.5-25.85Q77.5-22.9 79.05-21.03 80.6-19.15 82.85-18.15 85.1-17.15 87.32-16.15 89.55-15.15 91.1-13.28 92.65-11.4 92.65-8.45L92.65-8.45Q92.65-4.45 89.42-1.85 86.2 0.75 81.65 0.75 77.1 0.75 73.05-0.85Z" opacity="1" transform="matrix(1,0,0,1,0,0)" fill="#000000" class="wordmark-text-0" data-fill-palette-color="primary" id="text-0"></path></svg></g></svg></g><g transform="matrix(1,0,0,1,0,174.2697330268697)"><svg viewBox="0 0 395.5199999999999 24.1298673740053" height="24.1298673740053" width="395.5199999999999"><g transform="matrix(1,0,0,1,0,0)"><svg width="395.5199999999999" viewBox="4.15 -23.2 471.21000000000004 28.75" height="24.1298673740053" data-palette-color="#ffffff"><path d="M8 0L4.15 0 4.15-21.55Q4.15-22.5 4.48-22.75 4.8-23 5.6-23L5.6-23 8-23 8-13 23.15-13 23.15-23 27-23 27-1.55Q27-0.6 26.75-0.3 26.5 0 25.55 0L25.55 0 23.15 0 23.15-10.75 8-10.75 8 0ZM43.35 0.3L43.35 0.3Q41.05 0.3 39.22-0.05 37.4-0.4 36.07-1.45 34.75-2.5 34.05-4.55 33.35-6.6 33.35-9.95L33.35-9.95Q33.35-13.3 34.05-15.35 34.75-17.4 36.07-18.45 37.4-19.5 39.22-19.85 41.05-20.2 43.35-20.2L43.35-20.2Q45.6-20.2 47.42-19.85 49.25-19.5 50.55-18.45 51.85-17.4 52.55-15.35 53.25-13.3 53.25-9.95L53.25-9.95Q53.25-6.55 52.55-4.5 51.85-2.45 50.55-1.43 49.25-0.4 47.42-0.05 45.6 0.3 43.35 0.3ZM43.35-1.65L43.35-1.65Q45.35-1.65 46.77-2.25 48.2-2.85 48.95-4.6 49.7-6.35 49.7-9.95L49.7-9.95Q49.7-13.55 48.95-15.3 48.2-17.05 46.77-17.65 45.35-18.25 43.35-18.25L43.35-18.25Q41.35-18.25 39.92-17.65 38.5-17.05 37.72-15.3 36.95-13.55 36.95-9.95L36.95-9.95Q36.95-6.35 37.72-4.6 38.5-2.85 39.92-2.25 41.35-1.65 43.35-1.65ZM61.95 0L59.95 0Q59.05 0 58.75-0.28 58.45-0.55 58.45-1.45L58.45-1.45 58.45-18.5Q58.85-18.65 59.6-18.9 60.35-19.15 61.4-19.43 62.45-19.7 63.82-19.88 65.2-20.05 66.85-20.05L66.85-20.05Q68.55-20.05 69.8-19.78 71.05-19.5 71.95-18.82 72.85-18.15 73.45-17L73.45-17 72.75-17Q73.15-17.85 73.9-18.48 74.65-19.1 75.65-19.45 76.65-19.8 77.72-19.95 78.8-20.1 79.8-20.1L79.8-20.1Q82.6-20.1 84.2-19.55 85.8-19 86.47-17.7 87.15-16.4 87.15-14.25L87.15-14.25 87.15-1.35Q87.15-0.55 86.85-0.28 86.55 0 85.75 0L85.75 0 83.65 0Q83.65-3.6 83.65-7.18 83.65-10.75 83.65-14.35L83.65-14.35Q83.65-16.55 82.57-17.38 81.5-18.2 79.4-18.2L79.4-18.2Q78.4-18.2 77.27-17.95 76.15-17.7 75.35-17.2 74.55-16.7 74.55-16.05L74.55-16.05 74.55 0 71.05 0 71.05-15.65Q71.05-16.7 69.82-17.43 68.6-18.15 66.7-18.15L66.7-18.15Q65.55-18.15 64.5-17.98 63.45-17.8 62.75-17.48 62.05-17.15 61.95-16.6L61.95-16.6 61.95 0ZM102.29 0.3L102.29 0.3Q99.39 0.3 97.42-0.1 95.44-0.5 94.27-1.6 93.09-2.7 92.57-4.67 92.04-6.65 92.04-9.8L92.04-9.8Q92.04-13.4 92.94-15.7 93.84-18 96.14-19.1 98.44-20.2 102.59-20.2L102.59-20.2Q105.79-20.2 107.72-19.35 109.64-18.5 110.52-16.75 111.39-15 111.39-12.2L111.39-12.2 111.39-9.35 97.29-9.35Q97.29-9.95 97.59-10.38 97.89-10.8 98.69-10.8L98.69-10.8 108.24-10.8 108.19-12.25Q108.14-15.35 106.87-16.75 105.59-18.15 102.44-18.15L102.44-18.15Q99.79-18.15 98.29-17.35 96.79-16.55 96.19-14.75 95.59-12.95 95.59-9.85L95.59-9.85Q95.59-6.55 96.27-4.83 96.94-3.1 98.54-2.48 100.14-1.85 102.89-1.85L102.89-1.85Q103.84-1.85 105.07-1.93 106.29-2 107.54-2.1 108.79-2.2 109.77-2.38 110.74-2.55 111.14-2.75L111.14-2.75 111.14-2.15Q111.14-1.65 110.87-1.2 110.59-0.75 109.74-0.45L109.74-0.45Q108.64 0 106.77 0.15 104.89 0.3 102.29 0.3ZM129.79 0L126.79 0 133.44-19.65Q134.04-21.35 135.09-22.28 136.14-23.2 138.69-23.2L138.69-23.2Q140.99-23.2 142.09-22.35 143.19-21.5 143.84-19.65L143.84-19.65 150.64 0 146.49 0 144.34-6.35 131.84-6.35 129.79 0ZM135.69-18.15L132.49-8.1 143.64-8.1 140.34-18.15Q140.09-18.9 139.69-19.48 139.29-20.05 138.09-20.05L138.09-20.05Q136.74-20.05 136.31-19.45 135.89-18.85 135.69-18.15L135.69-18.15ZM161.73 0.15L161.73 0.15Q159.13 0.15 157.46-0.28 155.78-0.7 154.98-2.08 154.19-3.45 154.19-6.25L154.19-6.25 154.19-18.1Q154.19-19.2 154.44-19.58 154.69-19.95 155.58-19.95L155.58-19.95 157.69-19.95 157.69-6.1Q157.69-3.55 158.76-2.75 159.83-1.95 162.19-1.95L162.19-1.95Q164.63-1.95 165.71-2.8 166.78-3.65 166.78-5.35L166.78-5.35 166.73-19.95 170.28-19.95 170.28-5.3Q170.28-3.65 171.36-2.8 172.44-1.95 174.88-1.95L174.88-1.95Q177.23-1.95 178.31-2.75 179.38-3.55 179.38-6.1L179.38-6.1 179.38-19.95 181.38-19.95Q182.38-19.95 182.61-19.6 182.83-19.25 182.83-18.1L182.83-18.1 182.83-6.25Q182.83-3.5 182.03-2.13 181.23-0.75 179.56-0.3 177.88 0.15 175.19 0.15L175.19 0.15Q172.38 0.15 170.51-0.73 168.63-1.6 168.23-3.95L168.23-3.95 168.83-3.95Q168.53-2.4 167.66-1.48 166.78-0.55 165.31-0.2 163.83 0.15 161.73 0.15ZM196.88 0.35L196.88 0.35Q193.93 0.35 192.08 0.05 190.23-0.25 189.26-0.98 188.28-1.7 187.91-2.9 187.53-4.1 187.53-5.85L187.53-5.85Q187.53-8.4 188.13-9.75 188.73-11.1 190.23-11.6 191.73-12.1 194.23-12.1L194.23-12.1Q195.48-12.1 196.96-12.03 198.43-11.95 199.81-11.88 201.18-11.8 202.21-11.7 203.23-11.6 203.58-11.45L203.58-11.45Q203.58-13.75 203.18-15.1 202.78-16.45 201.96-17.1 201.13-17.75 199.91-17.95 198.68-18.15 197.08-18.15L197.08-18.15Q195.43-18.15 193.76-18.03 192.08-17.9 190.68-17.63 189.28-17.35 188.53-16.9L188.53-16.9 188.53-17.65Q188.53-18.7 189.16-19.13 189.78-19.55 190.58-19.7L190.58-19.7Q191.53-19.95 193.36-20.1 195.18-20.25 197.18-20.2L197.18-20.2Q199.73-20.2 201.56-19.95 203.38-19.7 204.58-18.88 205.78-18.05 206.38-16.4 206.98-14.75 206.98-11.9L206.98-11.9 206.98-1.6Q206.68-0.6 204.33-0.13 201.98 0.35 196.88 0.35ZM196.88-1.35L196.88-1.35Q199.18-1.35 200.56-1.5 201.93-1.65 202.66-1.9 203.38-2.15 203.58-2.55L203.58-2.55 203.58-10Q203.13-10.15 201.91-10.3 200.68-10.45 199.33-10.58 197.98-10.7 197.03-10.7L197.03-10.7Q194.88-10.7 193.56-10.45 192.23-10.2 191.66-9.2 191.08-8.2 191.08-6.1L191.08-6.1Q191.08-4.45 191.48-3.4 191.88-2.35 193.11-1.85 194.33-1.35 196.88-1.35ZM221.03 5.55L221.03 5.55Q218.78 5.55 216.78 5.33 214.78 5.1 213.53 4.65 212.28 4.2 212.28 3.65L212.28 3.65 212.28 2.4Q213.08 2.85 214.41 3.15 215.73 3.45 217.23 3.63 218.73 3.8 220.13 3.8L220.13 3.8Q222.53 3.8 224.06 3.15 225.58 2.5 226.35 1.05 227.13-0.4 227.13-2.6L227.13-2.6 227.13-5.3Q226.68-4.3 225.68-3.6 224.68-2.9 223.21-2.6 221.73-2.3 219.78-2.3L219.78-2.3Q216.23-2.3 214.56-3.3 212.88-4.3 212.41-6.15 211.93-8 211.93-10.45L211.93-10.45 211.93-18Q211.93-18.75 212-19.18 212.08-19.6 212.35-19.78 212.63-19.95 213.28-19.95L213.28-19.95 215.48-19.95Q215.48-18.65 215.48-17.48 215.48-16.3 215.48-15.18 215.48-14.05 215.48-12.9 215.48-11.75 215.48-10.45L215.48-10.45Q215.48-7.6 216.25-6.25 217.03-4.9 218.35-4.55 219.68-4.2 221.28-4.2L221.28-4.2Q222.88-4.2 224.18-4.63 225.48-5.05 226.28-6.3 227.08-7.55 227.08-10.05L227.08-10.05 227.08-19.95 229.23-19.95Q229.98-19.95 230.31-19.73 230.63-19.5 230.63-18.45L230.63-18.45 230.63-3Q230.63 1.45 228.31 3.5 225.98 5.55 221.03 5.55ZM253.93 0L250.08 0 250.08-21.25Q250.08-21.9 250.13-22.25 250.18-22.6 250.48-22.8 250.78-23 251.43-23L251.43-23 271.28-23 271.28-20.8 253.93-20.8 253.93-13.15 269.82-13.15 269.82-10.95 253.93-10.95 253.93 0ZM279.37-17.3L279.37 0 277.17 0Q276.52 0 276.2-0.33 275.87-0.65 275.87-1.55L275.87-1.55 275.87-18.95Q276.97-19.3 278.9-19.7 280.82-20.1 283.67-20.1L283.67-20.1Q286.37-20.1 287.95-19.73 289.52-19.35 290.25-18.7 290.97-18.05 291.2-17.13 291.42-16.2 291.42-15.05L291.42-15.05 288.07-15.05 288.02-15.75Q287.97-16.9 287.27-17.43 286.57-17.95 285.62-18.07 284.67-18.2 283.72-18.2L283.72-18.2Q282.27-18.2 281.15-17.95 280.02-17.7 279.37-17.3L279.37-17.3ZM304.62 0.3L304.62 0.3Q302.32 0.3 300.5-0.05 298.67-0.4 297.35-1.45 296.02-2.5 295.32-4.55 294.62-6.6 294.62-9.95L294.62-9.95Q294.62-13.3 295.32-15.35 296.02-17.4 297.35-18.45 298.67-19.5 300.5-19.85 302.32-20.2 304.62-20.2L304.62-20.2Q306.87-20.2 308.69-19.85 310.52-19.5 311.82-18.45 313.12-17.4 313.82-15.35 314.52-13.3 314.52-9.95L314.52-9.95Q314.52-6.55 313.82-4.5 313.12-2.45 311.82-1.43 310.52-0.4 308.69-0.05 306.87 0.3 304.62 0.3ZM304.62-1.65L304.62-1.65Q306.62-1.65 308.05-2.25 309.47-2.85 310.22-4.6 310.97-6.35 310.97-9.95L310.97-9.95Q310.97-13.55 310.22-15.3 309.47-17.05 308.05-17.65 306.62-18.25 304.62-18.25L304.62-18.25Q302.62-18.25 301.19-17.65 299.77-17.05 299-15.3 298.22-13.55 298.22-9.95L298.22-9.95Q298.22-6.35 299-4.6 299.77-2.85 301.19-2.25 302.62-1.65 304.62-1.65ZM323.22 0L321.22 0Q320.32 0 320.02-0.28 319.72-0.55 319.72-1.45L319.72-1.45 319.72-18.5Q320.12-18.65 320.87-18.9 321.62-19.15 322.67-19.43 323.72-19.7 325.09-19.88 326.47-20.05 328.12-20.05L328.12-20.05Q329.82-20.05 331.07-19.78 332.32-19.5 333.22-18.82 334.12-18.15 334.72-17L334.72-17 334.02-17Q334.42-17.85 335.17-18.48 335.92-19.1 336.92-19.45 337.92-19.8 338.99-19.95 340.07-20.1 341.07-20.1L341.07-20.1Q343.87-20.1 345.47-19.55 347.07-19 347.74-17.7 348.42-16.4 348.42-14.25L348.42-14.25 348.42-1.35Q348.42-0.55 348.12-0.28 347.82 0 347.02 0L347.02 0 344.92 0Q344.92-3.6 344.92-7.18 344.92-10.75 344.92-14.35L344.92-14.35Q344.92-16.55 343.84-17.38 342.77-18.2 340.67-18.2L340.67-18.2Q339.67-18.2 338.54-17.95 337.42-17.7 336.62-17.2 335.82-16.7 335.82-16.05L335.82-16.05 335.82 0 332.32 0 332.32-15.65Q332.32-16.7 331.09-17.43 329.87-18.15 327.97-18.15L327.97-18.15Q326.82-18.15 325.77-17.98 324.72-17.8 324.02-17.48 323.32-17.15 323.22-16.6L323.22-16.6 323.22 0ZM371.96 0L368.11 0 368.11-21.55Q368.11-22.5 368.44-22.75 368.76-23 369.56-23L369.56-23 371.96-23 371.96-13 387.11-13 387.11-23 390.96-23 390.96-1.55Q390.96-0.6 390.71-0.3 390.46 0 389.51 0L389.51 0 387.11 0 387.11-10.75 371.96-10.75 371.96 0ZM407.31 0.3L407.31 0.3Q405.01 0.3 403.19-0.05 401.36-0.4 400.04-1.45 398.71-2.5 398.01-4.55 397.31-6.6 397.31-9.95L397.31-9.95Q397.31-13.3 398.01-15.35 398.71-17.4 400.04-18.45 401.36-19.5 403.19-19.85 405.01-20.2 407.31-20.2L407.31-20.2Q409.56-20.2 411.38-19.85 413.21-19.5 414.51-18.45 415.81-17.4 416.51-15.35 417.21-13.3 417.21-9.95L417.21-9.95Q417.21-6.55 416.51-4.5 415.81-2.45 414.51-1.43 413.21-0.4 411.38-0.05 409.56 0.3 407.31 0.3ZM407.31-1.65L407.31-1.65Q409.31-1.65 410.74-2.25 412.16-2.85 412.91-4.6 413.66-6.35 413.66-9.95L413.66-9.95Q413.66-13.55 412.91-15.3 412.16-17.05 410.74-17.65 409.31-18.25 407.31-18.25L407.31-18.25Q405.31-18.25 403.88-17.65 402.46-17.05 401.69-15.3 400.91-13.55 400.91-9.95L400.91-9.95Q400.91-6.35 401.69-4.6 402.46-2.85 403.88-2.25 405.31-1.65 407.31-1.65ZM425.91 0L423.91 0Q423.01 0 422.71-0.28 422.41-0.55 422.41-1.45L422.41-1.45 422.41-18.5Q422.81-18.65 423.56-18.9 424.31-19.15 425.36-19.43 426.41-19.7 427.78-19.88 429.16-20.05 430.81-20.05L430.81-20.05Q432.51-20.05 433.76-19.78 435.01-19.5 435.91-18.82 436.81-18.15 437.41-17L437.41-17 436.71-17Q437.11-17.85 437.86-18.48 438.61-19.1 439.61-19.45 440.61-19.8 441.68-19.95 442.76-20.1 443.76-20.1L443.76-20.1Q446.56-20.1 448.16-19.55 449.76-19 450.43-17.7 451.11-16.4 451.11-14.25L451.11-14.25 451.11-1.35Q451.11-0.55 450.81-0.28 450.51 0 449.71 0L449.71 0 447.61 0Q447.61-3.6 447.61-7.18 447.61-10.75 447.61-14.35L447.61-14.35Q447.61-16.55 446.53-17.38 445.46-18.2 443.36-18.2L443.36-18.2Q442.36-18.2 441.23-17.95 440.11-17.7 439.31-17.2 438.51-16.7 438.51-16.05L438.51-16.05 438.51 0 435.01 0 435.01-15.65Q435.01-16.7 433.78-17.43 432.56-18.15 430.66-18.15L430.66-18.15Q429.51-18.15 428.46-17.98 427.41-17.8 426.71-17.48 426.01-17.15 425.91-16.6L425.91-16.6 425.91 0ZM466.25 0.3L466.25 0.3Q463.36 0.3 461.38-0.1 459.41-0.5 458.23-1.6 457.06-2.7 456.53-4.67 456-6.65 456-9.8L456-9.8Q456-13.4 456.91-15.7 457.81-18 460.11-19.1 462.41-20.2 466.56-20.2L466.56-20.2Q469.75-20.2 471.68-19.35 473.61-18.5 474.48-16.75 475.36-15 475.36-12.2L475.36-12.2 475.36-9.35 461.25-9.35Q461.25-9.95 461.56-10.38 461.86-10.8 462.66-10.8L462.66-10.8 472.2-10.8 472.16-12.25Q472.11-15.35 470.83-16.75 469.56-18.15 466.41-18.15L466.41-18.15Q463.75-18.15 462.25-17.35 460.75-16.55 460.16-14.75 459.56-12.95 459.56-9.85L459.56-9.85Q459.56-6.55 460.23-4.83 460.91-3.1 462.5-2.48 464.11-1.85 466.86-1.85L466.86-1.85Q467.81-1.85 469.03-1.93 470.25-2 471.5-2.1 472.75-2.2 473.73-2.38 474.7-2.55 475.11-2.75L475.11-2.75 475.11-2.15Q475.11-1.65 474.83-1.2 474.56-0.75 473.7-0.45L473.7-0.45Q472.61 0 470.73 0.15 468.86 0.3 466.25 0.3Z" opacity="1" transform="matrix(1,0,0,1,0,0)" fill="#000000" class="slogan-text-1" data-fill-palette-color="secondary" id="text-1"></path></svg></g></svg></g></svg></g></svg></g><g transform="matrix(1,0,0,1,90.51574079999997,0)"><svg viewBox="0 0 214.48851839999998 214.48851839999998" height="214.48851839999998" width="214.48851839999998"><g><svg></svg></g><g id="icon-0"><svg viewBox="0 0 214.48851839999998 214.48851839999998" height="214.48851839999998" width="214.48851839999998"><g><rect width="195.02567136" height="195.02567136" x="9.731423519999993" y="9.731423519999993" fill="#000000" data-fill-palette-color="accent"></rect><rect width="195.02567136" height="195.02567136" x="-5.329070518200751e-15" y="19.462847039999993" fill="#000000" opacity="0.5" data-fill-palette-color="accent"></rect></g><g transform="matrix(1,0,0,1,30.283047161017592,27.80406719999999)"><svg viewBox="0 0 153.9224240779648 158.880384" height="158.880384" width="153.9224240779648"><g><svg xmlns="http://www.w3.org/2000/svg" xmlns:xlink="http://www.w3.org/1999/xlink" version="1.1" x="0" y="0" viewBox="14.437 14.442 68.89 71.10900000000001" enable-background="new 0 0 100 100" xml:space="preserve" height="158.880384" width="153.9224240779648" class="icon-dxe-0" data-fill-palette-color="quaternary" id="dxe-0"><path d="M67.779 85.551" fill="#ffffff" data-fill-palette-color="quaternary"></path><path d="M67.774 85.546" fill="#ffffff" data-fill-palette-color="quaternary"></path><path d="M67.775 85.548" fill="#ffffff" data-fill-palette-color="quaternary"></path><path d="M81.995 76.658H78.881V41.107H81.324C82.423 41.107 83.322 40.607 83.322 39.996V38.884H83.327L63.329 14.442 43.331 38.884V39.996C43.331 40.607 44.231 41.107 45.329 41.107H47.772V76.658H32.207V68.511H45.545L38.324 58.883H43.317L36.652 49.995H39.982L33.315 41.107H36.647L29.982 32.219 23.317 41.107H26.651L19.986 49.995H23.321L16.656 58.883H21.657L14.437 68.511H27.757V76.658H17.992C17.26 76.658 16.66 77.26 16.66 77.99V79.767C16.66 80.502 17.26 81.104 17.992 81.104H81.992C82.724 81.104 83.324 80.502 83.324 79.767V77.99A1.333 1.333 0 0 0 81.995 76.658M58.883 54.438V58.883H52.219V54.438zM52.219 47.771V43.327H58.883V47.771zM61.106 76.658V65.548H65.547V76.658zM74.436 54.438V58.883H67.771V54.438zM67.771 47.771V43.327H74.436V47.771z" fill="#ffffff" data-fill-palette-color="quaternary"></path></svg></g></svg></g></svg></g></svg></g><g></g></svg></g><defs></defs></svg><rect width="219.13664141085854" height="247.2" fill="none" stroke="none" visibility="hidden"></rect></g></svg></g></svg>